<?xml version="1.0" encoding="UTF-8" standalone="no"?>
<!DOCTYPE svg PUBLIC "-//W3C//DTD SVG 1.1//EN" "http://www.w3.org/Graphics/SVG/1.1/DTD/svg11.dtd">
<!-- Created with Vectornator (http://vectornator.io/) -->
<svg height="100%" stroke-miterlimit="10" style="fill-rule:nonzero;clip-rule:evenodd;stroke-linecap:round;stroke-linejoin:round;" version="1.1" viewBox="0 0 1024 1024" width="100%" xml:space="preserve" xmlns="http://www.w3.org/2000/svg" xmlns:vectornator="http://vectornator.io" xmlns:xlink="http://www.w3.org/1999/xlink">
<defs/>
<g id="Layer-1" vectornator:layerName="Layer 1">
<path d="M595.695 309.871L595.695 159.947C595.695 132.361 573.306 109.972 545.72 109.972C523.998 109.972 505.674 123.931 498.81 143.288L495.745 143.288C477.355 143.288 462.429 158.214 462.429 176.605L462.429 309.871C462.429 435.508 134.293 446.303 129.329 671.19C127.03 775.571 200.793 862.394 304.475 874.788C322.132 876.887 338.558 876.354 354.15 874.355C338.258 845.503 329.162 812.186 329.162 776.304C329.162 740.655 342.989 676.421 344.555 669.224C348.486 651.233 366.244 639.873 384.235 643.804C402.226 647.735 413.587 665.493 409.655 683.451C405.791 701.108 395.796 752.15 395.796 776.304C395.796 841.338 452.567 909.571 529.062 909.571C605.557 909.571 662.328 841.338 662.328 776.304C662.328 684.983 599.86 559.28 599.227 558.014C590.964 541.555 597.628 521.532 614.086 513.303C630.544 505.007 650.568 511.704 658.797 528.129C661.662 533.892 728.962 669.391 728.962 776.304C728.962 812.186 719.9 845.503 703.974 874.322C712.437 875.454 720.832 876.254 728.962 876.254C838.906 876.254 928.861 786.299 928.861 676.354C928.861 443.138 595.695 423.148 595.695 309.871Z" fill="#000000" fill-rule="nonzero" opacity="1" stroke="none"/>
</g>
</svg>
